# xmcd
#
# Track frame offsets:
#	150
#	15105
#	33222
#	48173
#	64425
#	81494
#	98380
#	119257
#	135364
#	153182
#	170755
#	185844
#	201607
#	217668
#	232493
#	250666
#
# Disc length: 3531
#
# Revision: 1
# Processed by: cddbd v1.5.2PL0 Copyright (c) Steve Scherf et al.
# Submitted via: kJams 2 (development) 2.0patch37
#
DISCID=d50dc910
DTITLE=Various Artist - Party Tyme Karaoke – Country Hits 19
DYEAR=2017
DGENRE=Karaoke
TTITLE0=Florida Georga Line - H.O.L.Y
TTITLE1=Keith Urban - Blue Ain't Your Color
TTITLE2=Kelsea Ballerini - Peter Pan
TTITLE3=Kenny Chesney - Setting the World On Fire
TTITLE4=Florida Georgia Line - May We All
TTITLE5=Maren Morris - 80s Mercedes
TTITLE6=Luke Bryan - Huntin', Fishin', and Lovin' Everyday
TTITLE7=Blake Shelton - Came Here to Forget
TTITLE8=Florida Georgia Line - Anything Goes
TTITLE9=Thomas Rhett - T–Shirt
TTITLE10=Kelsea Ballerini - Yea Boy
TTITLE11=Jon Pardi - Head Over Boots
TTITLE12=Carrie Underwood - Dirty Laundry
TTITLE13=Jake Owen - American Country Love Song
TTITLE14=Miranda Lambert - Vice
TTITLE15=Eric Church - Record Year
EXTD=
EXTT0=
EXTT1=
EXTT2=
EXTT3=
EXTT4=
EXTT5=
EXTT6=
EXTT7=
EXTT8=
EXTT9=
EXTT10=
EXTT11=
EXTT12=
EXTT13=
EXTT14=
EXTT15=
PLAYORDER=
